<?xml version="1.0" encoding="iso-8859-1"?>
<!-- Generator: Adobe Illustrator 18.1.1, SVG Export Plug-In . SVG Version: 6.00 Build 0)  -->
<svg version="1.1" id="Capa_1" xmlns="http://www.w3.org/2000/svg" xmlns:xlink="http://www.w3.org/1999/xlink" x="0px" y="0px"
	 viewBox="0 0 484 484" style="enable-background:new 0 0 484 484;" xml:space="preserve">
<g>
	<polygon points="460.157,175 435.941,175 412,199.265 412,237 73,237 73,138.725 48.49,115 24.275,115 0,138.725 0,369 24.275,369 
		48.49,369 73,369 73,332 412,332 412,369 435.941,369 460.157,369 484,369 484,332.475 484,237.114 484,199.265 	"/>
	<circle cx="121.137" cy="187.157" r="36.324"/>
	<polygon points="388,187.157 363.539,162.941 194.123,138.725 170,162.941 170,211 388,211 	"/>
</g>
<g>
</g>
<g>
</g>
<g>
</g>
<g>
</g>
<g>
</g>
<g>
</g>
<g>
</g>
<g>
</g>
<g>
</g>
<g>
</g>
<g>
</g>
<g>
</g>
<g>
</g>
<g>
</g>
<g>
</g>
</svg>
