<?xml version="1.0" encoding="utf-8"?>
<!-- Svg Vector Icons : http://www.onlinewebfonts.com/icon -->
<!DOCTYPE svg PUBLIC "-//W3C//DTD SVG 1.1//EN" "http://www.w3.org/Graphics/SVG/1.1/DTD/svg11.dtd">
<svg version="1.1" xmlns="http://www.w3.org/2000/svg" xmlns:xlink="http://www.w3.org/1999/xlink" x="0px" y="0px" viewBox="0 0 1000 1000" enable-background="new 0 0 1000 1000" xml:space="preserve">
<metadata> Svg Vector Icons : http://www.onlinewebfonts.com/icon </metadata>
<g><g transform="translate(0.000000,511.000000) scale(0.100000,-0.100000)"><path fill="#E85A4F" d="M4442.3,4980.7c-1706.6-259.7-3007-1564-3260.8-3268.6c-41-273.4-41-820.1,0-1111c64.4-453,181.6-822,410-1280.9c285.1-576,638.5-1054.4,1491.8-2020.9C3731.5-3433,4975.3-4790,4998.8-4790c41,0,2393.9,2807.8,2759,3294C8318.2-752.1,8697,30.9,8806.3,665.5c91.8,535,35.1,1163.8-156.2,1735.8c-458.9,1370.7-1659.7,2366.5-3106.6,2579.4C5285.8,5019.8,4690.3,5019.8,4442.3,4980.7z M2981.8,2871.9c19.5-27.3,25.4-173.8,25.4-695.1c0-650.2,0-661.9,43-718.5l42.9-58.6h1958.5h1958.4v351.5c0,427.6,0,429.6,212.8,429.6c97.6,0,144.5-7.8,166-31.2c27.3-27.3,31.2-154.3,31.2-1109.1c0-812.3-5.8-1083.7-23.4-1101.3c-13.7-13.7-85.9-23.4-183.5-23.4c-226.5,0-222.6-3.9-222.6,343.6v281.2H4998.8H3007.1V259.4c0-347.5,3.9-343.6-222.6-343.6c-97.6,0-169.9,9.8-183.5,23.4c-17.6,17.6-23.4,371-23.4,1470.3c0,794.7,7.8,1454.7,15.6,1466.4c25.4,39,70.3,46.9,216.7,39C2923.2,2911,2960.3,2901.2,2981.8,2871.9z M3954.1,2573.2c91.8-41,216.7-171.8,257.7-269.5c15.6-39.1,27.3-125,27.3-191.3c0-277.3-214.8-496-488.1-497.9c-146.5,0-244.1,33.2-343.7,121.1c-228.5,201.1-234.3,533-13.7,745.9C3544.1,2624,3758.9,2659.1,3954.1,2573.2z M5994.6,2258.8c554.5-39.1,661.9-113.2,679.5-453l7.8-171.8H5479.1H4276.3v105.4c0,121.1,39.1,246,105.4,333.9c56.6,72.3,214.8,162.1,328,183.5C4828.9,2280.3,5680.2,2282.2,5994.6,2258.8z"/></g></g>
</svg>