<?xml version="1.0" ?><svg style="enable-background:new 0 0 64 64;" version="1.1" viewBox="0 0 64 64" xml:space="preserve" xmlns="http://www.w3.org/2000/svg" xmlns:xlink="http://www.w3.org/1999/xlink"><style type="text/css">
	.st0{fill:none;stroke:#E85A4F;stroke-width:2;stroke-linecap:round;stroke-linejoin:round;stroke-miterlimit:10;}
	.st1{fill:none;stroke:#E85A4F;stroke-width:2;stroke-linecap:round;stroke-linejoin:round;}
</style><g id="guides"/><g id="_x32_5._checking"/><g id="_x32_4._faucet"/><g id="_x32_3._drink"/><g id="_x32_2._hotel_key"/><g id="_x32_1._rating"/><g id="_x32_0._map"/><g id="_x31_9._wifi"/><g id="_x31_8._swimming_pool"/><g id="_x31_7._booking"/><g id="_x31_6._pasport"/><g id="_x31_5._coffee_cup"/><g id="_x31_4._bathtub"/><g id="_x31_3._bedroom"><path class="st0" d="M48,39H16c-2.2091389,0-4,1.7908592-4,4v10h40V43C52,40.7908592,50.2091408,39,48,39z"/><path class="st0" d="M30,29c-3.4316406-1.4142456-7.1251984-1.2523804-11,0v10h11V29z"/><path class="st0" d="M45,29c-3.4316406-1.4142456-7.1251984-1.2523804-11,0v10h11V29z"/><path class="st0" d="M18.5000019,57h-0.0000038C17.1192875,57,16,55.8807144,16,54.5000038V53h5v1.5000038   C21,55.8807144,19.8807125,57,18.5000019,57z"/><path class="st0" d="M45.5000038,57h-0.0000076C44.1192856,57,43,55.8807144,43,54.5000038V53h5v1.5000038   C48,55.8807144,46.8807144,57,45.5000038,57z"/><rect class="st0" height="13" width="4" x="56" y="40"/><line class="st0" x1="58" x2="58" y1="40" y2="33"/><polygon class="st0" points="59,28 57,28 56,33 60,33  "/><rect class="st0" height="13" width="4" x="4" y="40"/><line class="st0" x1="6" x2="6" y1="40" y2="33"/><polygon class="st0" points="7,28 5,28 4,33 8,33  "/><rect class="st0" height="10" width="10" x="20" y="7"/><rect class="st0" height="10" width="10" x="34" y="7"/></g><g id="_x31_2._air_conditioner"/><g id="_x31_1._breakfast"/><g id="_x31_0._parking_lot"/><g id="_x39_._room_service"/><g id="_x38_._elevator"/><g id="_x37_._reception"/><g id="_x36_._relax"/><g id="_x35_._car_rental"/><g id="_x34_._rental"/><g id="_x33_._smoking_area"/><g id="_x32_._exercise"/><g id="_x31_._luggage"/></svg>