<?xml version="1.0" encoding="utf-8"?>
<!-- Generator: Adobe Illustrator 16.0.0, SVG Export Plug-In . SVG Version: 6.00 Build 0)  -->
<!DOCTYPE svg PUBLIC "-//W3C//DTD SVG 1.1 Tiny//EN" "http://www.w3.org/Graphics/SVG/1.1/DTD/svg11-tiny.dtd">
<svg version="1.1" baseProfile="tiny" id="Layer_1" xmlns="http://www.w3.org/2000/svg" xmlns:xlink="http://www.w3.org/1999/xlink"
	 x="0px" y="0px" width="24px" height="24px" viewBox="0 0 24 24" xml:space="preserve">
<g>
	<path d="M23.388,8.754V8.668L23.3,8.581c-0.013-0.015-0.026-0.028-0.041-0.041C17.043,2.338,6.935,2.334,0.72,8.533
		C0.563,8.688,0.563,8.942,0.719,9.098c0.155,0.156,0.409,0.157,0.565,0.001c5.908-5.891,15.517-5.884,21.421,0.018h0
		c0.063,0.065,0.148,0.111,0.242,0.123c0.017,0.002,0.034,0.003,0.05,0.003c0.199,0,0.371-0.148,0.396-0.35
		C23.401,8.845,23.398,8.798,23.388,8.754z"/>
	<path d="M3.011,10.825c-0.157,0.156-0.157,0.409-0.001,0.566c0.078,0.079,0.181,0.118,0.284,0.118c0.102,0,0.204-0.039,0.282-0.116
		c4.649-4.627,12.204-4.62,16.789-0.044c0.011,0.016,0.028,0.039,0.042,0.053l0.574-0.557C16.033,5.896,7.972,5.888,3.011,10.825z"
		/>
	<path d="M5.304,13.118c-0.156,0.156-0.157,0.409-0.001,0.566c0.155,0.156,0.409,0.157,0.566,0.001
		c3.345-3.328,8.755-3.356,12.206-0.039c0.071,0.112,0.196,0.187,0.338,0.187c0.221,0,0.4-0.179,0.4-0.4l0.059-0.177l-0.186-0.118
		C15.002,9.453,8.999,9.443,5.304,13.118z"/>
	<path d="M7.595,15.411c-0.157,0.156-0.158,0.409-0.002,0.566c0.154,0.155,0.408,0.158,0.566,0.002
		c2.119-2.1,5.559-2.094,7.668,0.016c0.078,0.078,0.18,0.117,0.283,0.117s0.205-0.039,0.283-0.117c0.156-0.156,0.156-0.409,0-0.565
		C13.974,13.009,10.026,13.001,7.595,15.411z"/>
	<path d="M12.02,16.816c-0.913,0-1.656,0.742-1.656,1.654c0,0.912,0.743,1.653,1.656,1.653c0.911,0,1.652-0.741,1.652-1.653
		C13.671,17.558,12.93,16.816,12.02,16.816z M12.02,19.323c-0.472,0-0.856-0.383-0.856-0.853c0-0.471,0.384-0.854,0.856-0.854
		c0.47,0,0.852,0.383,0.852,0.854C12.872,18.94,12.489,19.323,12.02,19.323z"/>
</g>
</svg>
